<svg fill="#1A1E22" xmlns="http://www.w3.org/2000/svg" viewBox="0 0 96 96" x="0px" y="0px"><title>forest</title><g><path d="M92.21,91.46H64.5V71.62H84A1,1,0,0,0,84.8,70l-11.06-15h7.82a1,1,0,0,0,.77-1.63L72.24,41.05h9.32a1,1,0,0,0,.77-1.63L72.81,27.73h8.75a1,1,0,0,0,.7-1.71L59.42,3.29a1,1,0,0,0-1.42,0L35.14,26a1,1,0,0,0-.22,1.1,1,1,0,0,0,.93.61H44.6l-6,7.38-3.94-3.92a1,1,0,0,0-1.41,0L17.7,46.64a1,1,0,0,0,.71,1.71h5.71l-6.49,8a1,1,0,0,0-.13,1.06,1,1,0,0,0,.91.57h5.66l-6.44,7.9a1,1,0,0,0-.13,1.06,1,1,0,0,0,.91.57h4.08L14.94,77.1a1,1,0,0,0,.79,1.62H30.29V91.46H3.79a1,1,0,0,0,0,2H92.21a1,1,0,0,0,0-2ZM52.94,77.1l-4.3-5.48H55V91.46H38.18V78.72h14a1,1,0,0,0,.79-1.62ZM47.49,27.37a1,1,0,0,0-.78-1.64H38.27L58.71,5.41,79.14,25.73H70.71a1,1,0,0,0-.9.57,1,1,0,0,0,.12,1.07l9.53,11.68H70.14a1,1,0,0,0-.78,1.63l10.1,12.4h-7.7a1,1,0,0,0-.8,1.6L82,69.62H63.5a1,1,0,0,0-1,1V91.41H57V70.62a1,1,0,0,0-1-1H47.07l-1.68-2.14h4.08a1,1,0,0,0,.91-.57,1,1,0,0,0-.13-1.06L43.81,58h5.66a1,1,0,0,0,.91-.57,1,1,0,0,0-.13-1.06l-6.49-8h5.71a1,1,0,0,0,.71-1.71L40,36.53ZM32.29,91.46V77.72a1,1,0,0,0-1-1H17.79l7.54-9.62a1,1,0,0,0-.79-1.62h-4L27,57.58a1,1,0,0,0,.13-1.06,1,1,0,0,0-.91-.57H20.51L27,48a1,1,0,0,0,.13-1.06,1,1,0,0,0-.9-.57h-5.4l13.11-13L38,37.37h0l9,9h-5.4a1,1,0,0,0-.9.57A1,1,0,0,0,40.88,48l6.49,8H41.71a1,1,0,0,0-.91.57,1,1,0,0,0,.13,1.06l6.44,7.9h-4a1,1,0,0,0-.79,1.62l7.54,9.62H37.18a1,1,0,0,0-1,1V91.46Z"></path></g></svg>